<?xml version="1.0" encoding="UTF-8"?>
<svg id="Layer_2" xmlns="http://www.w3.org/2000/svg" viewBox="0 0 2344.52 2181.58">
  <defs>
    <style>
      .cls-1 {
        fill: #fff;
      }

      .cls-2 {
        fill: #fdfdfd;
      }

      .cls-3 {
        fill: #1a1a1a;
      }
    </style>
  </defs>
  <g id="Layer_1-2" data-name="Layer_1">
    <g>
      <path class="cls-2" d="M0,0c781.5,0,1563.01,0,2344.52,0,0,727.19,0,1454.39,0,2181.58-781.5,0-1563.01,0-2344.51,0C0,1454.39,0,727.2,0,0Z"/>
      <path class="cls-3" d="M980.54,837.69c-.1-26.63,2.35-53.01,7.66-79.12.85-4.17,1.98-8.22,4-11.98,4.47-8.34,11.42-12.86,20.88-13.44,22.17-1.36,32.12,7.8,34.44,30.31,7.8,75.73,26.59,148.34,63.39,215.5,26.76,48.83,60.06,92.59,102.84,128.66,20.62,17.38,43.2,31.6,68.53,41.18,7.96,3.01,16.07,5.2,24.71,4.86,12.81-.5,20.55-7.28,22.37-20,1.28-8.97.22-17.78-2.29-26.48-3.67-12.72-9.12-24.69-15.62-36.14-30.66-53.93-58.24-109.49-86.56-164.64-20.63-40.17-34.24-82.82-41.37-127.46-1.41-8.84-1.72-17.87-.19-26.69,2.59-14.89,10.71-26.33,23.29-34.66,12.58-8.33,26.6-12.86,41.33-15.24,32.82-5.3,65.55-3.76,98.15,2.02,39.7,7.05,77.7,19.98,115.44,33.74,28.23,10.29,56.35,20.93,85.55,28.27,18.48,4.64,37.08,8.41,56.29,8.26,18.45-.14,35.73-4.72,52.2-12.83,14.79-7.28,28.57-16.25,42.4-25.15,3.55-2.29,7.06-4.65,11.01-6.25,9.68-3.93,17.61-1.24,22.66,7.95,5.37,9.77,5.81,20.3,3.42,30.84-6.63,29.23-21.6,53.45-45.35,71.78-13.45,10.37-29.51,15.32-45.83,19.13-29.69,6.93-59.26,4.59-88.71-1.8-.92-.2-1.83-.43-2.72-.71-3.55-1.12-5.05.49-5.92,3.84-3.01,11.69-4.57,23.45-3.47,35.56,1.48,16.3,6.25,31.76,11.45,47.12,10.04,29.72,24.23,57.54,39.15,85.01,7.06,13,14.39,25.87,21.17,39.02,20.46,39.64,31.04,81.88,33.56,126.37,1.65,29.12-.18,57.72-8.74,85.74-8.76,28.69-23.67,53.46-45.53,74.2-39.34,37.34-85.68,62.22-137.15,78.04-54.09,16.62-109.48,21.43-165.78,17.63-30.37-2.05-60.15-7.02-88.88-17.35-36-12.96-66.64-33.38-89.35-64.72-5.8-8.01-10.97-16.41-15.15-25.38-5.01-10.75-6.87-21.92-3.84-33.6,3.01-11.61,9.79-20.07,20.84-25.07,14.17-6.41,28.71-6.1,43.47-2.82,14.73,3.27,28.7,8.82,42.67,14.37,23.57,9.36,47.09,18.85,71.77,25.01,40.04,10,80.42,12.7,120.58,2.01,62.93-16.73,103.57-57.7,123.9-118.95,7.95-23.96,6.54-48.67,1.82-73.21-4.99-25.97-14.14-50.61-24.03-75.01-9.44-23.28-19.78-46.21-28.15-69.92-10.82-30.65-16.65-62.09-14.97-94.73.93-17.96,4.21-35.41,10.86-52.17,2.87-7.23,1.71-10.92-4.93-13.66-27.77-11.47-55.17-23.87-83.36-34.33-18.3-6.79-37.09-11.92-56.24-15.71-.46-.09-.91-.24-1.37-.33-5.08-.99-9.89-1.03-13.32,3.78-3.23,4.54-1.75,8.79.55,13.19,31.07,59.57,62.46,118.96,95.15,177.66,15.78,28.33,30.42,57.24,42.38,87.44,8.73,22.04,14.16,44.8,14.43,68.56.71,62.71-32.88,104.31-83.13,125.55-41.85,17.69-84.63,17.11-127.5,3.56-34.13-10.79-63.86-29.42-91.05-52.33-38.82-32.71-70.21-71.79-97.48-114.36-32.63-50.96-55.94-105.76-67.9-165.21-5.62-27.95-8.56-56.17-8.46-84.7Z"/>
      <path class="cls-3" d="M389.82,1187.65c0-47.23,10.37-92.36,29.02-135.49,39.29-90.9,98.34-166.17,179.44-223.57,19.79-14,40.61-26.3,63.28-35.19,6.13-2.4,12.39-4.4,18.84-5.76,10.61-2.23,18.87,1.35,22.46,9.71,4.15,9.66,1.16,19.13-8.19,24.93-60.55,37.6-108.47,88.16-148.42,146.47-30,43.77-51.65,91.57-63.29,143.59-9.35,41.77-11.85,83.83-2.16,125.79,10.65,46.12,32.31,86.55,66.43,119.73,18.4,17.89,39.93,30.42,65.61,34.75,11.21,1.89,22.45,1.85,33.6-.66,16.86-3.8,29.23-13.43,37-28.88,6.9-13.72,9.37-28.53,9.99-43.64,1.29-31.11-4.05-61.31-13.5-90.84-10.23-31.98-22.33-63.34-32-95.51-3.51-11.7-6.77-23.46-9.41-35.39-.2-.92-.41-1.83-.66-2.74-.5-1.8-.81-3.92-3.05-4.3-2.66-.45-3.58,1.77-4.54,3.64-8.21,15.95-14.27,32.69-18.42,50.14-3.39,14.25-4.91,28.68-4.5,43.34.35,12.3,3.55,23.58,10.8,33.67,6.45,8.98,12.81,18,21.2,25.35,1.06.93,2.02,1.98,2.93,3.04,10.22,11.91,7.5,27.11-6.4,34.33-17.82,9.26-36.44,10.66-55.26,3.77-27.54-10.09-45.29-30.24-56.17-56.9-5.29-12.95-7.86-26.56-8.48-40.5-1.62-36.53,5.5-71.54,19.34-105.19,22.27-54.17,52.42-103.42,92.66-146.21,8.38-8.92,17.55-17.01,27.79-23.79,8.4-5.56,17.52-8.97,27.69-9.24,21.14-.55,39.12,13.72,44.78,35.72,2.19,8.52,2.65,17.12.6,25.81-9,38.25-7.31,76.45.69,114.61,6.48,30.91,17.2,60.49,27.99,90.06,10.39,28.48,19.88,57.22,25.54,87.11,8.78,46.36,5.91,91.75-12.16,135.59-12.94,31.39-33.48,56.45-64.21,72.15-26.32,13.46-54.3,17.48-83.49,14.1-41.18-4.76-76.97-22.54-109.14-47.47-65.13-50.48-104.5-117.09-120.42-197.72-3.15-15.94-3.89-32.17-3.86-48.41Z"/>
      <path class="cls-3" d="M1044.18,1301.84c-19-.22-33.83-7.75-45.26-22.49-14.64-18.89-25.72-39.82-35.96-61.27-14.99-31.39-27.88-63.67-41.05-95.84-1.07-2.61-2.02-5.29-3.36-7.75-3.03-5.58-8.7-6.77-13.56-2.7-3.05,2.55-5.81,5.49-8.45,8.48-7.61,8.64-15.29,17.23-22.56,26.14-10.97,13.44-14.31,28.76-10.19,45.66,8.03,32.91,18.33,65.08,30.83,96.56.35.87.63,1.78,1.03,2.62,6.14,13.04-.28,23.71-9.91,28.53-11.57,5.79-23.97,2.56-30.65-8.48-41.25-68.16-71.13-140.68-84.24-219.68-8.36-50.35-10.05-100.87-5.71-151.71,4.64-54.29,15.51-107.31,31.44-159.35,3.52-11.49,7.8-22.65,14.21-32.89,3.51-5.61,7.6-10.73,12.6-15.1,10.57-9.24,22.92-11.53,36.26-8.76,8.79,1.82,14.97,7.53,19.35,15.23,4.73,8.29,7.24,17.34,8.63,26.67,8.95,60.14,25.06,118.47,44.06,176.09,25.92,78.58,61.9,152.19,108.74,220.44,12.24,17.84,25.51,34.9,39.57,51.35,3.82,4.46,7.62,8.94,10.87,13.85,18.78,28.34,1.86,62.25-25.58,70.91-4.02,1.27-8.2,2.09-12.35,2.8-2.99.51-6.08.49-8.76.68Z"/>
      <path class="cls-3" d="M1955.26,1160.13c-.35,14.11-3.36,30.85-10.84,46.64-3.45,7.27-7.77,13.95-13.34,19.78-12,12.55-26.71,17.04-43.64,14.1-17.79-3.1-30.1-17.52-32.2-37.08-.87-8.07.55-15.91,1.94-23.79.78-4.39,1.64-8.79,2.01-13.23.93-11.27-1.18-22.05-6.58-32-20.33-37.46-50.83-62.76-91.36-75.95-3.85-1.25-7.94-2.78-10.83,1.51-2.91,4.31.25,7.42,2.69,10.61,11.59,15.18,20.91,31.8,29.64,48.7,7.18,13.89,10.49,29.14,12.76,44.51,4.3,29.06,4.49,58.15-2.37,86.83-6.85,28.65-18.99,54.99-37.25,78.29-7,8.93-15.12,16.73-24.86,22.69-10.47,6.41-21.75,9.26-34.14,9.36-23.23.2-37.77-21.71-36.75-39.91.66-11.78,4.18-22.55,9.77-32.78,4.86-8.89,10.59-17.23,16.89-25.13,24.59-30.79,27.56-64.69,15.15-101.01-5.18-15.16-11.97-29.58-19.39-43.74-11.8-22.51-22.33-45.55-28.04-70.49-10.21-44.57-6.38-87.71,13.41-129.15,4.17-8.74,9.65-16.63,16.67-23.42,11.92-11.54,26.31-15,42.24-12.55,9.04,1.39,15.82,6.76,21.07,14.16,4.76,6.71,9.46,13.45,14.45,19.98,11.96,15.66,26.52,28.5,43.14,39.06,24.04,15.27,47.04,31.94,67.63,51.72,21.26,20.41,40.34,42.68,56.23,67.56,11.61,18.17,20.12,37.67,23.79,59.08,1.27,7.42,2.17,14.87,2.12,25.64Z"/>
      <path class="cls-1" d="M831.98,976.64c.13-21.84,1.37-43.62,5.34-65.16.51-2.78,1.12-5.54,2.65-7.96,1.06-1.68,2.58-2.8,4.72-2.3,1.87.43,2.5,1.98,2.78,3.67.65,3.94,1.18,7.89,1.88,11.82,4.6,25.75,13.34,50.31,21.75,74.95,1.7,4.97,2.79,9.91,1.8,15.18-.89,4.76-2.91,8.94-6.25,12.39-9.42,9.73-23.61,7.89-30.34-3.83-3.14-5.47-3.96-11.55-4.25-17.64-.34-7.03-.08-14.08-.08-21.12Z"/>
      <path class="cls-1" d="M1708.54,979.22c.03-9.62,1.52-18.12,4.18-26.42.5-1.55.94-3.18,1.78-4.55,1.66-2.7,4.44-2.8,6.23-.26.8,1.13,1.28,2.49,1.79,3.79,4.09,10.59,9.73,20.33,17.4,28.65,7.52,8.15,4.69,16.89-.49,21.82-6.53,6.21-15.59,6.12-22.78-.32-7.09-6.34-8.93-14.53-8.11-22.72Z"/>
    </g>
  </g>
</svg>